Coordinates
version=1
nRows=10
nColumns=22
inDegrees=yes

Units are S.I. units (second, meters, Newtons, ...)
If the header above contains a line with 'inDegrees', this indicates whether rotational values are in degrees (yes) or radians (no).

endheader
time	pelvis_tilt	pelvis_list	pelvis_rotation	pelvis_tx	pelvis_ty	pelvis_tz	hip_flexion_r	hip_adduction_r	hip_rotation_r	knee_angle_r	ankle_angle_r	subtalar_angle_r	hip_flexion_l	hip_adduction_l	hip_rotation_l	knee_angle_l	ankle_angle_l	subtalar_angle_l	lumbar_extension	lumbar_bending	lumbar_rotation
      3.67000000	      0.96313740	     -3.53385351	    -34.15021137	      1.06628571	      0.87975461	      1.07459786	     22.03297349	     -2.22219804	     -1.09187750	    -31.10920461	      5.60526479	      1.01527239	     11.46508480	     -4.68501148	      9.72346318	    -25.19967237	     14.49000775	      9.36355910	     -3.95263134	      4.69447701	      6.32173500
      3.68000000	      0.61844708	     -3.15418621	    -33.71681346	      1.07079387	      0.88108927	      1.07875731	     21.14743494	     -2.32763218	     -1.01738997	    -28.70674186	      4.63178810	      1.11515610	     11.00727604	     -4.68643444	     10.02994053	    -24.00857331	     14.21949610	      9.40140893	     -3.23623122	      4.59757939	      6.07768243
      3.69000000	      0.32107080	     -2.78155901	    -33.26882233	      1.07515499	      0.88188247	      1.08293415	     20.30748260	     -2.45831045	     -1.01552886	    -26.73881999	      4.09307257	      1.22122716	     10.61845656	     -4.66332178	     10.36356871	    -23.01883910	     14.10158968	      9.47397359	     -2.57341174	      4.45601598	      5.83408884
      3.70000000	      0.06047839	     -2.41601800	    -32.83000270	      1.07935486	      0.88214549	      1.08712099	     19.53431572	     -2.60362715	     -1.08122017	    -25.18458604	      4.02055940	      1.29772720	     10.31499753	     -4.62372026	     10.68512339	    -22.24831316	     14.12416816	      9.58130374	     -1.96046477	      4.28367548	      5.60392290
      3.71000000	     -0.18171244	     -2.05975783	    -32.42806935	      1.08332467	      0.88189188	      1.09132630	     18.85359712	     -2.74025771	     -1.19654747	    -23.99946486	      4.39777069	      1.31719889	     10.11265612	     -4.58246236	     10.98890336	    -21.69916390	     14.27136043	      9.69922793	     -1.39610942	      4.09503457	      5.41172373
      3.72000000	     -0.34977174	     -1.75262203	    -32.06688920	      1.08705114	      0.88127300	      1.09548636	     18.17367947	     -2.86441046	     -1.34601755	    -23.08004247	      5.10238716	      1.27482098	      9.96833750	     -4.53772450	     11.22330190	    -21.42849956	     14.60252747	      9.88727363	     -0.97386832	      3.90600389	      5.23316880
      3.73000000	     -0.51148909	     -1.47854838	    -31.80363825	      1.09043499	      0.88024466	      1.09965854	     17.61959090	     -2.93501676	     -1.50050339	    -22.44362146	      6.07459431	      1.18727299	      9.92781228	     -4.52393095	     11.38285746	    -21.39456571	     15.05839851	     10.04343382	     -0.62918884	      3.74272284	      5.17020899
      3.74000000	     -0.62308845	     -1.26758275	    -31.58466390	      1.09351846	      0.87901279	      1.10370198	     17.10575864	     -2.96858423	     -1.70588753	    -21.98343675	      7.08972093	      0.89889608	      9.94939267	     -4.52403869	     11.52968586	    -21.60056193	     15.59116747	     10.36664397	     -0.42771164	      3.61898327	      5.10549966
      3.75000000	     -0.73506357	     -1.12796188	    -31.51284702	      1.09615113	      0.87756065	      1.10772455	     16.75395776	     -2.89304104	     -1.83880115	    -21.77964524	      8.13454925	      0.49272899	     10.06692859	     -4.59644364	     11.53901615	    -22.05657082	     16.22040819	     10.70919929	     -0.34208695	      3.57188806	      5.22228161
      3.76000000	     -0.82267790	     -1.06296204	    -31.55794732	      1.09841092	      0.87604884	      1.11166426	     16.53438631	     -2.74079697	     -1.94384403	    -21.81214378	      9.09611440	      0.10821849	     10.23456208	     -4.72497850	     11.41468777	    -22.71018072	     16.91024536	     11.00390024	     -0.38938180	      3.59654623	      5.43958275
